{
  "accessors": [
    {
      "bufferView": 2,
      "componentType": 5126,
      "count": 18915,
      "max": [
        0.1760389655828476,
        0.19733844697475433,
        0.1543194204568863
      ],
      "min": [
        -0.026143189519643784,
        -0.10102624446153641,
        -0.050773072987794876
      ],
      "type": "VEC3"
    },
    {
      "bufferView": 2,
      "byteOffset": 226980,
      "componentType": 5126,
      "count": 18915,
      "max": [
        1.0,
        1.0,
        1.0
      ],
      "min": [
        -1.0,
        -1.0,
        -1.0
      ],
      "type": "VEC3"
    },
    {
      "bufferView": 3,
      "componentType": 5126,
      "count": 18915,
      "max": [
        1.0,
        1.0,
        1.0,
        1.0
      ],
      "min": [
        -1.0,
        -1.0,
        -1.0,
        -1.0
      ],
      "type": "VEC4"
    },
    {
      "bufferView": 1,
      "componentType": 5126,
      "count": 18915,
      "max": [
        0.993353545665741,
        0.9926526546478271
      ],
      "min": [
        0.006629437208175659,
        0.010428724810481071
      ],
      "type": "VEC2"
    },
    {
      "bufferView": 1,
      "byteOffset": 151320,
      "componentType": 5126,
      "count": 18915,
      "max": [
        0.993353545665741,
        0.9926526546478271
      ],
      "min": [
        0.006629437208175659,
        0.010428724810481071
      ],
      "type": "VEC2"
    },
    {
      "bufferView": 1,
      "byteOffset": 302640,
      "componentType": 5126,
      "count": 18915,
      "max": [
        0.993353545665741,
        0.9926526546478271
      ],
      "min": [
        0.006629437208175659,
        0.010428724810481071
      ],
      "type": "VEC2"
    },
    {
      "bufferView": 1,
      "byteOffset": 453960,
      "componentType": 5126,
      "count": 18915,
      "max": [
        0.993353545665741,
        0.9926526546478271
      ],
      "min": [
        0.006629437208175659,
        0.010428724810481071
      ],
      "type": "VEC2"
    },
    {
      "bufferView": 0,
      "componentType": 5125,
      "count": 35892,
      "type": "SCALAR"
    }
  ],
  "asset": {
    "extras": {
      "author": "Mikhail Antonov (https://sketchfab.com/xeofox)",
      "license": "CC-BY-4.0 (http://creativecommons.org/licenses/by/4.0/)",
      "source": "https://sketchfab.com/3d-models/laptop-notebook-975bf43d39fd4440aafa511aa85c4693",
      "title": "Laptop, notebook"
    },
    "generator": "Sketchfab-13.74.0",
    "version": "2.0"
  },
  "bufferViews": [
    {
      "buffer": 0,
      "byteLength": 143568,
      "name": "floatBufferViews",
      "target": 34963
    },
    {
      "buffer": 0,
      "byteLength": 605280,
      "byteOffset": 143568,
      "byteStride": 8,
      "name": "floatBufferViews",
      "target": 34962
    },
    {
      "buffer": 0,
      "byteLength": 453960,
      "byteOffset": 748848,
      "byteStride": 12,
      "name": "floatBufferViews",
      "target": 34962
    },
    {
      "buffer": 0,
      "byteLength": 302640,
      "byteOffset": 1202808,
      "byteStride": 16,
      "name": "floatBufferViews",
      "target": 34962
    }
  ],
  "buffers": [
    {
      "byteLength": 1505448,
      "uri": "scene.bin"
    }
  ],
  "images": [
    {
      "uri": "textures/Material.001_baseColor.png"
    },
    {
      "uri": "textures/Material.001_metallicRoughness.png"
    },
    {
      "uri": "textures/Material.001_emissive.png"
    },
    {
      "uri": "textures/Material.001_normal.png"
    }
  ],
  "materials": [
    {
      "doubleSided": true,
      "emissiveFactor": [
        0.29908636984705667,
        0.29908636984705667,
        0.29908636984705667
      ],
      "emissiveTexture": {
        "index": 2,
        "texCoord": 1
      },
      "name": "Material.001",
      "normalTexture": {
        "index": 3,
        "texCoord": 2
      },
      "pbrMetallicRoughness": {
        "baseColorTexture": {
          "index": 0
        },
        "metallicRoughnessTexture": {
          "index": 1
        }
      }
    }
  ],
  "meshes": [
    {
      "name": "laptop_Material.001_0",
      "primitives": [
        {
          "attributes": {
            "NORMAL": 1,
            "POSITION": 0,
            "TANGENT": 2,
            "TEXCOORD_0": 3,
            "TEXCOORD_1": 4,
            "TEXCOORD_2": 5,
            "TEXCOORD_3": 6
          },
          "indices": 7,
          "material": 0,
          "mode": 4
        }
      ]
    }
  ],
  "nodes": [
    {
      "children": [
        1
      ],
      "matrix": [
        1.0,
        0.0,
        0.0,
        0.0,
        0.0,
        2.220446049250313e-16,
        -1.0,
        0.0,
        0.0,
        1.0,
        2.220446049250313e-16,
        0.0,
        0.0,
        0.0,
        0.0,
        1.0
      ],
      "name": "Sketchfab_model"
    },
    {
      "children": [
        2
      ],
      "matrix": [
        0.009999999776482582,
        0.0,
        0.0,
        0.0,
        0.0,
        0.0,
        0.009999999776482582,
        0.0,
        0.0,
        -0.009999999776482582,
        0.0,
        0.0,
        0.0,
        0.0,
        0.0,
        1.0
      ],
      "name": "laptop.fbx"
    },
    {
      "children": [
        3
      ],
      "name": "RootNode"
    },
    {
      "children": [
        4
      ],
      "matrix": [
        109.94269561767578,
        0.0,
        0.0,
        0.0,
        -0.0,
        -1.7911938664201066e-05,
        -109.94269561767433,
        0.0,
        0.0,
        109.94269561767433,
        -1.7911938664201066e-05,
        0.0,
        -0.9408631324768066,
        85.57962036132813,
        24.792984008789063,
        1.0
      ],
      "name": "laptop"
    },
    {
      "mesh": 0,
      "name": "laptop_Material.001_0"
    }
  ],
  "samplers": [
    {
      "magFilter": 9729,
      "minFilter": 9987,
      "wrapS": 10497,
      "wrapT": 10497
    }
  ],
  "scene": 0,
  "scenes": [
    {
      "name": "Sketchfab_Scene",
      "nodes": [
        0
      ]
    }
  ],
  "textures": [
    {
      "sampler": 0,
      "source": 0
    },
    {
      "sampler": 0,
      "source": 1
    },
    {
      "sampler": 0,
      "source": 2
    },
    {
      "sampler": 0,
      "source": 3
    }
  ]
}
