{
  "accessors": [
    {
      "bufferView": 2,
      "componentType": 5126,
      "count": 1122,
      "max": [
        1.6802533864974976,
        1.373705267906189,
        1.5353834629058838
      ],
      "min": [
        -1.6503973007202148,
        -1.3890293836593628,
        0.0008377558551728725
      ],
      "type": "VEC3"
    },
    {
      "bufferView": 2,
      "byteOffset": 13464,
      "componentType": 5126,
      "count": 1122,
      "max": [
        0.9893143773078918,
        0.9592128396034241,
        0.9714186191558838
      ],
      "min": [
        -0.9893143773078918,
        -0.9592046141624451,
        -0.9714186191558838
      ],
      "type": "VEC3"
    },
    {
      "bufferView": 3,
      "componentType": 5126,
      "count": 1122,
      "max": [
        0.9984166622161865,
        0.9999547600746155,
        0.9996083378791809,
        1.0
      ],
      "min": [
        -0.9985696077346802,
        -1.0,
        -0.9996083378791809,
        -1.0
      ],
      "type": "VEC4"
    },
    {
      "bufferView": 1,
      "componentType": 5126,
      "count": 1122,
      "max": [
        0.9914166331291199,
        0.999260425567627
      ],
      "min": [
        0.017266687005758286,
        0.0009240192594006658
      ],
      "type": "VEC2"
    },
    {
      "bufferView": 1,
      "byteOffset": 8976,
      "componentType": 5126,
      "count": 1122,
      "max": [
        0.9914166331291199,
        0.999260425567627
      ],
      "min": [
        0.017266687005758286,
        0.0009240192594006658
      ],
      "type": "VEC2"
    },
    {
      "bufferView": 1,
      "byteOffset": 17952,
      "componentType": 5126,
      "count": 1122,
      "max": [
        0.9914166331291199,
        0.999260425567627
      ],
      "min": [
        0.017266687005758286,
        0.0009240192594006658
      ],
      "type": "VEC2"
    },
    {
      "bufferView": 0,
      "componentType": 5125,
      "count": 3384,
      "type": "SCALAR"
    },
    {
      "bufferView": 2,
      "byteOffset": 26928,
      "componentType": 5126,
      "count": 19793,
      "max": [
        1.5535916090011597,
        1.5563416481018066,
        3.83967924118042
      ],
      "min": [
        -1.594764232635498,
        -1.5808374881744385,
        0.6853646039962769
      ],
      "type": "VEC3"
    },
    {
      "bufferView": 2,
      "byteOffset": 264444,
      "componentType": 5126,
      "count": 19793,
      "max": [
        0.9998764991760254,
        0.9997439384460449,
        0.9999802112579346
      ],
      "min": [
        -0.9999665021896362,
        -0.9998191595077515,
        -0.9999790191650391
      ],
      "type": "VEC3"
    },
    {
      "bufferView": 3,
      "byteOffset": 17952,
      "componentType": 5126,
      "count": 19793,
      "max": [
        0.9999947547912598,
        0.999981164932251,
        0.9643867611885071,
        1.0
      ],
      "min": [
        -0.9999756217002869,
        -0.9999891519546509,
        -0.9909586906433105,
        -1.0
      ],
      "type": "VEC4"
    },
    {
      "bufferView": 1,
      "byteOffset": 26928,
      "componentType": 5126,
      "count": 19793,
      "max": [
        1.000059723854065,
        1.0000001192092896
      ],
      "min": [
        0.0,
        0.0
      ],
      "type": "VEC2"
    },
    {
      "bufferView": 1,
      "byteOffset": 185272,
      "componentType": 5126,
      "count": 19793,
      "max": [
        1.000059723854065,
        1.0000001192092896
      ],
      "min": [
        0.0,
        0.0
      ],
      "type": "VEC2"
    },
    {
      "bufferView": 1,
      "byteOffset": 343616,
      "componentType": 5126,
      "count": 19793,
      "max": [
        1.000059723854065,
        1.0000001192092896
      ],
      "min": [
        0.0,
        0.0
      ],
      "type": "VEC2"
    },
    {
      "bufferView": 0,
      "byteOffset": 13536,
      "componentType": 5125,
      "count": 117504,
      "type": "SCALAR"
    }
  ],
  "asset": {
    "extras": {
      "author": "TadenStar (https://sketchfab.com/tadenstar)",
      "license": "CC-BY-4.0 (http://creativecommons.org/licenses/by/4.0/)",
      "source": "https://sketchfab.com/3d-models/moon-table-lamp-9af2f6a821fe440bbdf6f3819f8168ee",
      "title": "Moon - Table lamp"
    },
    "generator": "Sketchfab-12.68.0",
    "version": "2.0"
  },
  "bufferViews": [
    {
      "buffer": 0,
      "byteLength": 483552,
      "name": "floatBufferViews",
      "target": 34963
    },
    {
      "buffer": 0,
      "byteLength": 501960,
      "byteOffset": 483552,
      "byteStride": 8,
      "name": "floatBufferViews",
      "target": 34962
    },
    {
      "buffer": 0,
      "byteLength": 501960,
      "byteOffset": 985512,
      "byteStride": 12,
      "name": "floatBufferViews",
      "target": 34962
    },
    {
      "buffer": 0,
      "byteLength": 334640,
      "byteOffset": 1487472,
      "byteStride": 16,
      "name": "floatBufferViews",
      "target": 34962
    }
  ],
  "buffers": [
    {
      "byteLength": 1822112,
      "uri": "scene.bin"
    }
  ],
  "images": [
    {
      "uri": "textures/Wood_baseColor.jpeg"
    },
    {
      "uri": "textures/Wood_metallicRoughness.png"
    },
    {
      "uri": "textures/Wood_emissive.png"
    },
    {
      "uri": "textures/Wood_normal.jpeg"
    },
    {
      "uri": "textures/Moon_baseColor.jpeg"
    },
    {
      "uri": "textures/Moon_emissive.jpeg"
    },
    {
      "uri": "textures/Moon_normal.png"
    }
  ],
  "materials": [
    {
      "doubleSided": true,
      "emissiveFactor": [
        1.0,
        1.0,
        1.0
      ],
      "emissiveTexture": {
        "index": 2
      },
      "name": "Wood",
      "normalTexture": {
        "index": 3,
        "scale": 0.652288577178678
      },
      "pbrMetallicRoughness": {
        "baseColorTexture": {
          "index": 0
        },
        "metallicFactor": 0.0,
        "metallicRoughnessTexture": {
          "index": 1
        }
      }
    },
    {
      "doubleSided": true,
      "emissiveFactor": [
        0.9291264615216243,
        0.9291264615216243,
        0.9291264615216243
      ],
      "emissiveTexture": {
        "index": 5
      },
      "name": "Moon",
      "normalTexture": {
        "index": 6,
        "scale": 0.45
      },
      "pbrMetallicRoughness": {
        "baseColorTexture": {
          "index": 4
        },
        "metallicFactor": 0.0,
        "roughnessFactor": 0.8211145618000169
      }
    }
  ],
  "meshes": [
    {
      "name": "Wood_Cage_Wood_0",
      "primitives": [
        {
          "attributes": {
            "NORMAL": 1,
            "POSITION": 0,
            "TANGENT": 2,
            "TEXCOORD_0": 3,
            "TEXCOORD_1": 4,
            "TEXCOORD_2": 5
          },
          "indices": 6,
          "material": 0,
          "mode": 4
        }
      ]
    },
    {
      "name": "Moon_Moon_0",
      "primitives": [
        {
          "attributes": {
            "NORMAL": 8,
            "POSITION": 7,
            "TANGENT": 9,
            "TEXCOORD_0": 10,
            "TEXCOORD_1": 11,
            "TEXCOORD_2": 12
          },
          "indices": 13,
          "material": 1,
          "mode": 4
        }
      ]
    }
  ],
  "nodes": [
    {
      "children": [
        1
      ],
      "matrix": [
        0.10000000149011612,
        0.0,
        0.0,
        0.0,
        0.0,
        2.2204460823375376e-17,
        -0.10000000149011612,
        0.0,
        0.0,
        0.10000000149011612,
        2.2204460823375376e-17,
        0.0,
        0.0,
        0.0,
        0.0,
        1.0
      ],
      "name": "Sketchfab_model"
    },
    {
      "children": [
        2
      ],
      "matrix": [
        0.009999999776482582,
        0.0,
        0.0,
        0.0,
        0.0,
        0.0,
        0.009999999776482582,
        0.0,
        0.0,
        -0.009999999776482582,
        0.0,
        0.0,
        0.0,
        0.0,
        0.0,
        1.0
      ],
      "name": "d850ea1b5e8c4258b229defc5df0a9cc.fbx"
    },
    {
      "children": [
        3
      ],
      "name": "RootNode"
    },
    {
      "children": [
        4,
        6
      ],
      "matrix": [
        100.0,
        0.0,
        0.0,
        0.0,
        0.0,
        -1.629206793918314e-05,
        -99.99999999999868,
        0.0,
        0.0,
        99.99999999999868,
        -1.629206793918314e-05,
        0.0,
        0.0,
        0.0,
        0.0,
        1.0
      ],
      "name": "MoonLamp"
    },
    {
      "children": [
        5
      ],
      "matrix": [
        1.0,
        0.0,
        0.0,
        0.0,
        0.0,
        1.0,
        -2.646977960169688e-23,
        0.0,
        0.0,
        2.646977960169688e-23,
        1.0,
        0.0,
        0.0,
        0.0,
        0.0,
        1.0
      ],
      "name": "Wood_Cage"
    },
    {
      "mesh": 0,
      "name": "Wood_Cage_Wood_0"
    },
    {
      "children": [
        7
      ],
      "matrix": [
        1.0,
        0.0,
        0.0,
        0.0,
        0.0,
        1.0,
        -2.646977960169688e-23,
        0.0,
        0.0,
        2.646977960169688e-23,
        1.0,
        0.0,
        0.0,
        0.0,
        0.0,
        1.0
      ],
      "name": "Moon"
    },
    {
      "mesh": 1,
      "name": "Moon_Moon_0"
    }
  ],
  "samplers": [
    {
      "magFilter": 9729,
      "minFilter": 9987,
      "wrapS": 10497,
      "wrapT": 10497
    }
  ],
  "scene": 0,
  "scenes": [
    {
      "name": "Sketchfab_Scene",
      "nodes": [
        0
      ]
    }
  ],
  "textures": [
    {
      "sampler": 0,
      "source": 0
    },
    {
      "sampler": 0,
      "source": 1
    },
    {
      "sampler": 0,
      "source": 2
    },
    {
      "sampler": 0,
      "source": 3
    },
    {
      "sampler": 0,
      "source": 4
    },
    {
      "sampler": 0,
      "source": 5
    },
    {
      "sampler": 0,
      "source": 6
    }
  ]
}
