{"asset":{"generator":"glTF-Transform v3.5.1","version":"2.0","extras":{"author":"andree (https://sketchfab.com/maestronoov)","license":"CC-BY-4.0 (http://creativecommons.org/licenses/by/4.0/)","source":"https://sketchfab.com/3d-models/bed-ea1152935b9049e4a0fcc949ebd31fa1","title":"Bed"}},"accessors":[{"type":"VEC3","componentType":5126,"count":4945,"max":[46.544071197509766,17.69724464416504,13.210555076599121],"min":[-5.4536638259887695,-6.736282825469971,1.599208950996399],"bufferView":0,"byteOffset":0},{"type":"VEC3","componentType":5126,"count":4945,"bufferView":0,"byteOffset":12},{"type":"VEC4","componentType":5126,"count":4945,"bufferView":0,"byteOffset":24},{"type":"VEC2","componentType":5126,"count":4945,"bufferView":0,"byteOffset":40},{"type":"SCALAR","componentType":5125,"count":27117,"bufferView":1,"byteOffset":0}],"bufferViews":[{"buffer":0,"byteOffset":0,"byteLength":237360,"byteStride":48,"target":34962},{"buffer":0,"byteOffset":237360,"byteLength":108468,"target":34963}],"samplers":[{"magFilter":9729,"minFilter":9987,"wrapS":10497,"wrapT":10497}],"textures":[{"source":0,"sampler":0},{"source":1,"sampler":0},{"source":3,"sampler":0},{"source":2,"sampler":0}],"images":[{"mimeType":"image/png","uri":"textures/material_0_diffuse.png"},{"mimeType":"image/png","uri":"textures/material_0_normal.png"},{"mimeType":"image/png","uri":"specular_1.png"},{"mimeType":"image/png","uri":"metallicRoughness_1.png"}],"buffers":[{"uri":"scene.bin","byteLength":345828}],"materials":[{"name":"material_0","doubleSided":true,"pbrMetallicRoughness":{"metallicFactor":0,"baseColorTexture":{"index":0},"metallicRoughnessTexture":{"index":2}},"normalTexture":{"index":1,"scale":0.751714939},"extensions":{"KHR_materials_ior":{"ior":1000},"KHR_materials_specular":{"specularColorFactor":[0.0322027439,0.0322027439,0.0322027439],"specularTexture":{"index":3},"specularColorTexture":{"index":3}}}}],"meshes":[{"name":"Object_0","primitives":[{"attributes":{"NORMAL":1,"POSITION":0,"TANGENT":2,"TEXCOORD_0":3},"mode":4,"material":0,"indices":4}]}],"nodes":[{"name":"Sketchfab_model","rotation":[-0.7071067811865475,0,0,0.7071067811865476],"children":[1]},{"name":"bed.obj.cleaner.materialmerger.gles","children":[2]},{"name":"Object_2","mesh":0}],"scenes":[{"name":"Sketchfab_Scene","nodes":[0]}],"scene":0,"extensionsUsed":["KHR_materials_ior","KHR_materials_specular"]}